PathFileType	4	(X/Y/Z)	Walk9.trc
DataRate	CameraRate	NumFrames	NumMarkers	Units	OrigDataRate	OrigDataStartFrame	OrigNumFrames
200.000000	200.000000	10	56	mm	200.000000	427	502
Frame#	Times		RBHD		C7		RBack		RASI		RACR1		RUA1		RElbow		RFA1		RWRR		RCAR		LACR1		LElbow		LElbowM		LFA1		RTH1		RTH3		RTH2		RTH4		RLFC		RTB3		RTB2		RTB4		RMT1		RMT5		LTH3		LTH2		LWRU		LTH4		LPSI		CLAV		RPSI		LLFC		LTB1		LBHD		T10		LTB4		RWRU		LTB2		LMT1		LTH1		LWRR		LFHD		RFHD		LCAL		LLMAL		LMT5		RElbowM		LToe		LTB3		LMMAL		RCAL		RToe		LUA1		RLMAL		RMMAL		LCAR
			X1	Y1	Z1	X2	Y2	Z2	X3	Y3	Z3	X4	Y4	Z4	X5	Y5	Z5	X6	Y6	Z6	X7	Y7	Z7	X8	Y8	Z8	X9	Y9	Z9	X10	Y10	Z10	X11	Y11	Z11	X12	Y12	Z12	X13	Y13	Z13	X14	Y14	Z14	X15	Y15	Z15	X16	Y16	Z16	X17	Y17	Z17	X18	Y18	Z18	X19	Y19	Z19	X20	Y20	Z20	X21	Y21	Z21	X22	Y22	Z22	X23	Y23	Z23	X24	Y24	Z24	X25	Y25	Z25	X26	Y26	Z26	X27	Y27	Z27	X28	Y28	Z28	X29	Y29	Z29	X30	Y30	Z30	X31	Y31	Z31	X32	Y32	Z32	X33	Y33	Z33	X34	Y34	Z34	X35	Y35	Z35	X36	Y36	Z36	X37	Y37	Z37	X38	Y38	Z38	X39	Y39	Z39	X40	Y40	Z40	X41	Y41	Z41	X42	Y42	Z42	X43	Y43	Z43	X44	Y44	Z44	X45	Y45	Z45	X46	Y46	Z46	X47	Y47	Z47	X48	Y48	Z48	X49	Y49	Z49	X50	Y50	Z50	X51	Y51	Z51	X52	Y52	Z52	X53	Y53	Z53	X54	Y54	Z54	X55	Y55	Z55	X56	Y56	Z56

427	2.135	873.69	1546.8	433.86	846.74	1420	347	771.47	1320.2	427.41	949.77	930.8	450.43	905.71	1356.4	494.5	828.86	1167.8	555.03	758.49	1051.7	563	761.52	906.73	588.75	800.05	764.68	551.15	744.78	717.62	585.35	895.69	1423.2	170.3	832.81	1108.5	32.295	808.38	1100.6	112.73	950.04	993.29	10.879	937.81	728.23	506.26	1010.7	555.25	473.55	1037.6	671.52	470.1	974.42	641.02	493.47	1048.3	461.46	461.38	1083.4	183.72	374.08	1079.9	277.58	448.16	1090.1	281.18	376.88	1179.3	38.801	337.03	1149.9	31.689	422.61	876.56	533.93	132.12	952.98	619.02	156.77	960.15	874.64	13.541	883.29	623.17	123.52	767.87	937.64	247.34	983.05	1342.4	331.27	765.64	940.84	353.35	841.76	424.19	142.34	812.44	318.72	194.72	856.32	1552.5	297.21	754.83	1111.4	302.55	732.72	269.37	198.59	718.82	781.19	575.3	712.31	297.4	135.38	565.3	46.509	245.75	891.64	718.7	120.91	1024.6	907.65	54.909	1036.8	1596.1	299.25	1047.7	1598.7	380.06	457.27	209.26	221.73	515.95	198.46	174.48	553.29	62.32	164.68	745.59	1036.9	468.19	599.52	24.202	225.36	655.51	218.16	200.39	550	179.56	259.25	977.67	30.368	375.1	1228.9	39.119	358.75	865.06	1236.2	59.981	1026.7	78.062	416.29	1051.3	95.065	330.02	1042.9	860	5.3169
428	2.14	880.17	1547.3	435.07	853.24	1421	348.06	778.34	1321	428.66	955.94	932.22	451.17	912.81	1357.1	495.22	837.24	1168.1	556.16	767.33	1051.6	564.56	771.65	906.79	590.01	811.69	764.36	551.88	756.42	717.51	587.16	901.96	1424.6	171.52	838.57	1109.9	33.559	814.73	1102.6	114.43	954.71	993.68	11.892	943.54	728.93	506.61	1014.9	555.35	473.52	1042.6	671.69	470.09	979.32	641.65	493.67	1051.6	461.5	461.25	1084	183.39	373.62	1081.9	277.25	447.73	1091.4	280.83	376.45	1179.1	38.474	336.34	1150	31.733	422.21	888.45	533.61	133.06	963.32	619.63	157.26	963.43	874.88	14.508	893.22	622.76	124.63	774.22	938.51	248.2	989.57	1343.3	331.8	771.76	942.08	354.25	854.93	423.24	143.51	825.23	318.1	195.84	863.06	1553.6	298.57	760.99	1112.4	303.44	744.54	270.36	199.59	730.03	780.92	576.95	724.96	298.55	136.25	574.93	50.398	244.98	899.65	718.7	121.84	1028.6	907.03	55.485	1043.5	1597.1	301	1054.3	1599.5	381.67	468.05	215.99	221.3	526.66	203.84	174.99	562.37	67.843	165.06	754.43	1036.7	469.99	607.6	27.309	223.72	665.92	220.68	201.55	559.68	184.93	260.01	977.59	30.372	375.03	1229.2	39.674	359.43	871.68	1237.5	60.933	1026.9	78.246	416.13	1051.2	94.82	329.89	1045.9	859.02	6.0119
429	2.145	886.6	1548	436.4	859.71	1422.1	349.09	785.14	1321.9	429.99	962.15	933.49	451.93	919.99	1357.9	495.72	845.79	1168.7	557.15	776.31	1051.6	566.08	781.81	906.87	591.55	822.51	764.06	552.85	768.36	717.86	588.78	908.04	1426.1	172.68	844.38	1111.7	34.964	820.9	1104.7	115.68	959.36	994.08	12.825	949.22	730.05	507.22	1018.9	555.6	473.71	1047.8	671.9	469.96	984.43	642.32	493.75	1054.8	461.5	461.22	1084.6	183.09	373.31	1083.5	276.87	447.5	1092.7	280.44	376.11	1179.1	38.289	335.94	1150	31.695	421.97	900.21	533.29	134.11	973.44	620.6	157.83	966.94	875.08	15.377	903.04	622.54	125.75	780.45	939.12	249.46	995.92	1344.4	332.32	778.16	943.3	355.1	868.2	422.58	144.67	837.69	318.17	197.61	869.54	1554.7	299.79	767.12	1113.7	304.34	756.29	271.92	201.16	741.69	780.51	578.53	737.68	299.43	137.22	585.05	54.486	244.48	908.19	718.39	124.31	1032.1	906.33	56.357	1050	1598.3	302.55	1060.7	1600.2	383.29	479.27	222.05	221.22	538.02	208.8	175.44	572.36	73.083	165.54	763.34	1036.5	471.83	617.88	31.199	222.87	677.2	223.73	202.78	570.1	189.72	260.79	977.51	30.4	374.94	1229.5	39.758	360.01	878.37	1238.9	61.938	1027.1	78.441	416.07	1051.1	94.601	329.79	1049	858.19	6.4008
430	2.15	892.76	1548.7	437.48	865.95	1423.2	350.2	791.87	1322.7	431.53	968.32	934.88	452.76	926.99	1358.6	496.32	854.51	1169	558.09	785.64	1051.6	567.32	792.43	906.97	592.98	832.53	763.86	554.13	780.96	718.12	591.25	914.15	1427.6	173.48	850.23	1113.2	35.988	826.48	1106.9	116.59	963.99	994.48	13.657	954.91	731.16	507.91	1022.6	556.13	473.94	1052.6	672.14	469.92	989.27	643.02	494.05	1057.7	461.48	461.31	1085.3	182.73	373.2	1085.4	276.43	447.48	1093.9	279.92	375.94	1179.1	38.177	335.81	1150.1	31.66	421.94	912.03	533.1	135.06	983.57	622.18	158.3	970.13	875.45	16.03	913.03	622.33	126.55	786.3	940.06	250.56	1002.3	1345.3	332.71	784.24	944.31	356.17	881.42	422.25	145.66	850.26	318.98	199.69	876.18	1555.9	300.67	773.37	1114.9	305.41	768.66	273.89	202.92	753.09	780.28	580.25	751.02	300.59	138.23	595.27	58.753	244.54	916.25	718.4	125.46	1035.5	905.64	57.129	1056.6	1599.6	304.04	1067.1	1600.9	384.84	490.72	227.22	222.1	549.64	213.52	175.99	582.92	77.832	165.49	771.89	1036.4	473.38	628.71	35.191	223.59	688.81	226.83	204.42	581.07	194.07	261.4	977.49	30.468	374.99	1229.9	39.421	360.29	884.77	1240.4	62.826	1027.4	78.59	415.9	1051.2	94.432	329.7	1051.9	857.58	6.9876
431	2.155	898.93	1549.3	438.59	872.31	1424.2	351.36	798.63	1323.5	432.98	974.51	936.16	453.41	934.07	1359.6	496.91	863.12	1169.5	559.01	795.09	1051.7	568.8	803.08	906.9	594.57	841.95	763.84	555.71	793.55	718.06	592.83	920.32	1428.9	174.34	855.97	1114.9	36.878	831.73	1109.2	117.56	968.57	995.05	14.532	960.26	732.28	508.52	1026.3	556.69	474.3	1057.4	672.32	469.93	993.65	643.59	494.46	1060.5	461.45	461.48	1085.9	182.43	373.25	1086.8	276.09	447.62	1095.1	279.58	376.01	1179.2	38.133	335.84	1150	31.761	422.21	923.45	533.42	136.09	993.26	623.45	159.04	973.15	876.02	16.342	922.59	622.84	127.57	792.12	941.1	251.42	1008.6	1346.5	333.1	789.95	946.02	356.65	894.65	422.62	146.6	862.7	320.15	201.78	882.56	1557.2	301.71	779.39	1116.2	306.27	780.8	276.08	204.66	764.95	779.77	582.04	764.28	301.98	139.36	606.1	62.609	244.7	924.02	718.84	125.66	1039.2	905.22	57.767	1062.9	1600.8	305.56	1073.6	1601.8	386.43	502.51	231.56	223.24	561.6	217.9	176.66	594.14	81.937	164.84	780.5	1036.5	475.01	639.66	39.037	224.13	700.81	229.72	205.9	592.55	197.73	262.03	977.51	30.533	375.03	1230.3	38.917	360.23	891.19	1241.8	63.674	1027.6	78.833	416.2	1051.3	94.319	329.62	1054.8	856.83	7.6915
432	2.16	905.24	1550.2	439.58	878.6	1425.4	352.34	805.39	1324.5	434.36	980.66	937.54	453.87	941.17	1360.4	497.24	871.68	1170	559.91	804.35	1052	570.58	814.01	907.16	595.99	851.27	764.06	557.47	806.22	718.03	594.62	926.36	1430.3	174.96	861.39	1116.4	37.701	836.79	1111.3	118.3	972.88	995.57	15.181	965.5	733.34	509.18	1030.2	557.35	474.9	1062	672.59	469.95	998.19	644.39	495.01	1063	461.44	461.74	1086.6	182.11	373.3	1087.9	275.73	447.85	1096.4	279.23	376.31	1179.3	38.075	335.8	1150.1	31.698	422.3	933.99	533.67	136.99	1002.9	625.38	159.68	976.19	876.7	16.751	932.15	623.34	128.42	797.88	942.24	252.3	1014.8	1347.6	333.49	795.68	947.86	357.48	907.86	423.62	147.47	875.69	321.74	203.52	889.16	1558.9	302.87	785.45	1117.3	307.23	793.36	278.13	206.18	776.86	779.71	583.65	777.58	304.1	140.7	617.2	66.319	244.75	931.72	720.52	126.5	1043	904.78	58.352	1069.4	1601.8	307.07	1080.2	1602.5	387.89	514.61	235.52	224.15	573.97	221.81	177.28	605.56	86.087	164.98	788.97	1036.4	476.84	651.14	42.347	224.1	712.55	232.51	207.24	605.02	201.13	262.5	977.42	30.558	375.05	1230.5	38.375	359.73	897.4	1243.1	64.26	1027.5	78.955	416.66	1051.5	94.256	329.59	1057.6	855.99	8.4194
433	2.165	911.59	1551	440.44	884.85	1426.5	353.14	811.95	1325.5	435.55	986.83	938.73	454.58	948.13	1361.3	497.5	880.23	1170.6	560.86	813.62	1052.2	572.28	824.88	907.24	597.5	861.19	764.53	559.17	818.94	718.17	596.43	932.3	1431.7	175.69	866.84	1117.7	38.643	841.63	1113	118.66	977.18	996.11	15.812	970.6	734.13	509.37	1033.9	557.91	475.65	1066.1	672.86	470.03	1002.4	645.32	495.63	1065.3	461.32	462.17	1087.3	181.85	373.73	1088.8	275.47	448.23	1097.6	278.93	376.79	1179.3	38.017	335.78	1150.2	31.611	422.24	944.74	534.52	137.8	1012.2	627.48	160.58	979.07	877.42	16.764	941.69	624.26	128.98	803.73	943.38	253.22	1021.1	1348.8	333.82	801.72	949.22	358.35	921.16	425.11	148.39	888.98	323.55	204.76	895.61	1560.4	303.88	791.4	1118.7	307.87	806.26	280.3	207.24	789.11	779.42	585.12	790.59	306.41	141.82	629.28	69.486	244.71	940.29	721.15	128.62	1046.6	904.45	58.994	1076	1603	308.48	1086.6	1603.3	389.3	527.35	239.06	225.02	586.57	225.52	177.89	617.71	89.722	165.27	797.7	1036.4	478.33	663.11	45.782	223.52	725.33	235.21	208.15	617.5	204.46	263.1	977.36	30.564	375.07	1230.6	37.923	359.33	903.54	1244.5	65.013	1027.5	78.897	416.74	1051.6	94.3	329.62	1060.2	855.34	9.1545
434	2.17	917.82	1551.9	441.21	891.1	1427.9	353.78	818.4	1326.5	436.62	992.86	939.91	455.01	954.91	1362.3	497.87	888.82	1171.2	561.89	823.06	1052.3	573.78	835.76	907.37	599.11	872.49	765.12	560.55	832.06	718.39	597.86	938.18	1433.1	176.27	872.41	1119.3	39.296	846.33	1114.5	118.8	981.54	996.59	16.411	975.58	735	509.68	1037.4	558.37	476.46	1070.5	673.03	470.05	1006.6	646.08	496.36	1067.7	461.24	462.5	1087.9	181.6	374.23	1089.7	275.29	448.61	1098.9	278.74	377.22	1179.2	38	335.72	1150.3	31.514	422.14	955.79	536	138.42	1021.8	630.07	161.06	982.12	878.08	17.182	951.12	625.5	129.44	809.49	944.44	254.02	1027.2	1350	334.13	807.86	950.49	358.98	934.65	426.96	149.24	902.22	325.07	205.64	902.12	1561.8	304.73	797.63	1120	308.55	819.78	282.46	208.07	801.36	779.11	586.85	803.85	309.06	142.76	642.19	72.412	244.83	948.15	722.71	129.6	1049.8	904.07	59.681	1082.6	1604.2	309.74	1092.8	1604.2	390.59	540.13	242.43	225.85	599.79	228.93	178.54	630.15	93.037	165.64	806.44	1036.3	479.64	675.57	48.991	223.21	738.46	237.88	208.55	630.51	207.49	263.92	977.37	30.582	375.09	1230.5	37.609	359.12	909.47	1245.9	65.523	1027.5	78.79	416.54	1051.8	94.448	329.69	1063	854.7	9.9351
435	2.175	924.09	1553.1	441.98	897.27	1429.1	354.48	824.71	1327.6	437.86	998.83	941.13	455.66	961.42	1363.3	498.17	897.35	1172	562.77	832.44	1052.4	575.13	846.68	907.69	600.59	885.67	766.03	561.41	845.53	718.8	599.41	944.19	1434.5	176.79	877.89	1120.8	39.944	850.99	1116.3	118.81	985.53	997.08	17.035	980.43	735.92	510.2	1040.7	558.73	477.09	1074.8	673.1	470.22	1010.8	646.74	497.28	1069.8	461.18	462.96	1088.6	181.36	374.74	1090.3	275.12	449.08	1100	278.48	377.8	1179.1	38.005	335.7	1150.1	31.558	422.36	966.63	537.68	138.89	1031.1	632.71	161.63	985.41	878.43	18.1	960.35	626.98	129.92	815.34	945.61	254.84	1033.4	1351.3	334.32	813.81	951.92	359.74	948.11	428.84	150.02	916.18	327	206.08	908.46	1563.2	305.49	804	1121.4	309.4	833.24	284.49	208.63	813.78	779.09	588.56	817.39	311.73	143.57	655.4	75.217	245.17	955.58	724.55	129.41	1052.7	903.73	60.372	1089.2	1605.5	310.95	1098.8	1604.9	392.03	553.3	245.22	226.72	612.84	231.98	179.48	643.34	95.92	166	814.64	1036.2	481.01	688.9	52.13	223.35	752.15	240.33	209.12	643.76	210.02	264.48	977.35	30.58	375.23	1230.5	37.427	359.13	915.23	1247.3	66.025	1027.5	78.717	416.33	1051.9	94.59	329.78	1065.5	854.13	10.769
436	2.18	930.4	1554.2	443.11	903.23	1430.5	355.09	831.1	1328.6	438.91	1004.6	942.14	456.2	967.91	1364.4	498.62	905.83	1172.7	563.5	841.91	1052.4	576.93	858.16	908.16	601.99	898.87	766.81	562.64	859.25	719.13	600.76	950.13	1435.8	177.33	883.11	1122.2	40.507	854.9	1118.2	118.94	989.5	997.76	17.509	985.09	736.82	510.83	1043.8	559.05	477.66	1078.7	673.23	470.45	1014.8	647.47	498.1	1071.8	461.13	463.51	1089.1	181.16	375.21	1090.9	274.84	449.67	1101	278.17	378.44	1179	38.058	335.74	1150.1	31.242	422.41	977.22	539.4	139.37	1040	635.51	162.34	988.41	879.55	18.023	969.45	628.65	130.49	821.29	947.04	255.82	1039.4	1352.6	334.71	819.8	953.55	360.61	961.59	430.75	150.76	930.56	329.11	206.43	914.93	1565	306.59	809.66	1122.9	310.23	846.77	286.51	209.13	826.44	779.25	590.37	830.94	314.23	144.24	669.13	77.744	245.71	962.61	726.27	128.95	1055.7	903.64	60.943	1095.5	1606.8	312.15	1105.1	1605.9	393.3	566.24	247.54	227.52	626.27	234.59	180.32	657.13	98.786	166.4	823.26	1036.3	482.54	703	55.163	223.91	765.53	242.52	209.51	657.43	212.45	265.22	977.29	30.636	375.34	1230.5	37.389	359.31	920.8	1248.7	66.662	1027.6	78.457	416.02	1052	94.722	329.91	1068.1	853.71	11.621
